<svg viewBox="0 0 512 512" xmlns="http://www.w3.org/2000/svg"><path d="M256 135.944c-92.321 0-173.414 47.85-220 120.055 46.586 72.207 127.679 120.057 220 120.057s173.414-47.85 220-120.057c-46.586-72.205-127.68-120.055-220-120.055Zm0 216.112a96.056 96.056 0 1 1 96.055-96.057A96.056 96.056 0 0 1 256 352.056Z" fill="#f7941d" class="fill-000000"></path><path d="M250.36 210.173a50.903 50.903 0 0 1 7.381-26.14c-.584-.014-1.153-.089-1.741-.089A72.056 72.056 0 1 0 328.056 256c0-.586-.075-1.156-.088-1.738a50.922 50.922 0 0 1-26.142 7.379 51.526 51.526 0 0 1-51.467-51.467Z" fill="#f7941d" class="fill-000000"></path></svg>